<svg width="43" height="44" viewBox="0 0 43 44" fill="none" xmlns="http://www.w3.org/2000/svg">
<path d="M21.5908 43V42.9107V42.1012" stroke="#0E0E0E" stroke-width="1.3122" stroke-miterlimit="10"/>
<path d="M5.96729 42.1012V42.9107V43" stroke="#0E0E0E" stroke-width="1.3122" stroke-miterlimit="10"/>
<path d="M41.5 42.9106H37.1526C33.9116 21.0154 28.1582 6.4126 21.5908 6.28216V1.03036C30.291 3.93949 37.6758 20.1809 41.5 42.9106Z" fill="#0E0E0E" stroke="#0E0E0E" stroke-width="1.4264" stroke-miterlimit="10"/>
<path d="M18.9693 7.00588C17.8339 7.66168 16.7312 8.75528 15.672 10.2438C15.0235 11.1516 14.3913 12.2076 13.779 13.4013C10.5708 19.6466 7.86025 29.6624 5.96725 42.1012C5.92729 42.3692 5.8855 42.6408 5.84735 42.9107H1.5C2.67359 35.9291 4.18507 29.5605 5.96725 24.0032C7.7022 18.5852 9.69511 13.9374 11.886 10.2438C12.5001 9.2038 13.1323 8.24065 13.779 7.35612C14.662 6.14637 15.5703 5.08492 16.5041 4.1861C17.3452 4.99736 18.1682 5.94087 18.9693 7.00588Z" fill="#0E0E0E" stroke="#0E0E0E" stroke-width="1.4264" stroke-miterlimit="10"/>
<path d="M21.5909 1.03037V6.28217C21.56 6.27859 21.5309 6.27859 21.5001 6.27859C20.6426 6.27859 19.7978 6.52519 18.9694 7.00587C18.1682 5.94086 17.3453 4.99736 16.5042 4.18609C18.1065 2.63503 19.7778 1.55574 21.5001 1C21.5309 1.00893 21.56 1.01787 21.5909 1.03037Z" fill="#0E0E0E" stroke="#0E0E0E" stroke-width="1.4264" stroke-miterlimit="10"/>
<path d="M26.0581 42.9107H21.7107C21.6726 42.6409 21.6308 42.3692 21.5908 42.1012C19.6978 29.6624 16.9873 19.6466 13.7791 13.4013C14.3913 12.2076 15.0235 11.1516 15.6721 10.2438C17.863 13.9374 19.8559 18.5852 21.5908 24.0032C23.373 29.5605 24.8845 35.9291 26.0581 42.9107Z" fill="#0E0E0E" stroke="#0E0E0E" stroke-width="1.4264" stroke-miterlimit="10"/>
<path d="M13.7791 7.35611C13.1323 8.24064 12.5001 9.20379 11.8861 10.2438C10.8269 8.75527 9.72421 7.66167 8.58877 7.00587C7.76036 6.52519 6.9156 6.27859 6.05812 6.27859C6.02724 6.27859 5.99817 6.27859 5.96729 6.28217V1.03037C5.99817 1.01787 6.02724 1.00893 6.05812 1C7.78035 1.55574 9.45171 2.63503 11.054 4.18609C11.9878 5.08491 12.8962 6.14636 13.7791 7.35611Z" fill="#0E0E0E" stroke="#0E0E0E" stroke-width="1.4264" stroke-miterlimit="10"/>
</svg>
