<svg width="48" height="48" viewBox="0 0 48 48" fill="none" xmlns="http://www.w3.org/2000/svg">
<path d="M24.0005 12.3635C20.8404 12.3635 20.4438 12.3773 19.2026 12.4338C17.9638 12.4906 17.1183 12.6867 16.3784 12.9744C15.6131 13.2716 14.9639 13.6692 14.3172 14.3163C13.6699 14.963 13.2723 15.6123 12.9742 16.3773C12.6857 17.1175 12.4893 17.9633 12.4336 19.2016C12.3781 20.4428 12.3635 20.8396 12.3635 23.9999C12.3635 27.1601 12.3776 27.5555 12.4338 28.7967C12.4908 30.0355 12.6869 30.8811 12.9744 31.621C13.2719 32.3863 13.6694 33.0355 14.3164 33.6823C14.963 34.3296 15.6122 34.7281 16.377 35.0253C17.1173 35.3131 17.9631 35.5092 19.2016 35.5659C20.4428 35.6224 20.8391 35.6363 23.9991 35.6363C27.1594 35.6363 27.5548 35.6224 28.796 35.5659C30.0347 35.5092 30.8813 35.3131 31.6216 35.0253C32.3867 34.7281 33.0349 34.3296 33.6814 33.6823C34.3287 33.0355 34.7262 32.3863 35.0244 31.6212C35.3105 30.8811 35.5068 30.0353 35.565 28.797C35.6208 27.5558 35.6353 27.1601 35.6353 23.9999C35.6353 20.8396 35.6208 20.443 35.565 19.2018C35.5068 17.963 35.3105 17.1175 35.0244 16.3776C34.7262 15.6123 34.3287 14.963 33.6814 14.3163C33.0342 13.669 32.3869 13.2714 31.6209 12.9744C30.8791 12.6867 30.0331 12.4906 28.7943 12.4338C27.5531 12.3773 27.158 12.3635 23.9969 12.3635H24.0005ZM22.9567 14.4605C23.2665 14.46 23.6122 14.4605 24.0005 14.4605C27.1073 14.4605 27.4756 14.4716 28.7024 14.5274C29.8369 14.5793 30.4527 14.7689 30.8628 14.9281C31.4059 15.139 31.793 15.3912 32.2 15.7984C32.6073 16.2057 32.8594 16.5936 33.0708 17.1366C33.23 17.5463 33.4199 18.1621 33.4715 19.2966C33.5272 20.5233 33.5394 20.8918 33.5394 23.9972C33.5394 27.1027 33.5272 27.4712 33.4715 28.6978C33.4196 29.8324 33.23 30.4481 33.0708 30.8578C32.8599 31.4009 32.6073 31.7875 32.2 32.1946C31.7928 32.6018 31.4061 32.8539 30.8628 33.0649C30.4532 33.2249 29.8369 33.4139 28.7024 33.4658C27.4758 33.5216 27.1073 33.5337 24.0005 33.5337C20.8934 33.5337 20.5252 33.5216 19.2986 33.4658C18.1641 33.4135 17.5483 33.2239 17.1379 33.0646C16.5949 32.8537 16.207 32.6016 15.7998 32.1943C15.3925 31.787 15.1404 31.4001 14.929 30.8569C14.7698 30.4472 14.5799 29.8314 14.5283 28.6969C14.4726 27.4702 14.4614 27.1017 14.4614 23.9943C14.4614 20.8869 14.4726 20.5204 14.5283 19.2937C14.5802 18.1592 14.7698 17.5434 14.929 17.1332C15.1399 16.5902 15.3925 16.2023 15.7998 15.795C16.207 15.3878 16.5949 15.1356 17.1379 14.9243C17.5481 14.7643 18.1641 14.5752 19.2986 14.523C20.372 14.4746 20.788 14.46 22.9567 14.4576V14.4605ZM30.2117 16.3926C29.4408 16.3926 28.8154 17.0173 28.8154 17.7885C28.8154 18.5594 29.4408 19.1849 30.2117 19.1849C30.9826 19.1849 31.608 18.5594 31.608 17.7885C31.608 17.0176 30.9826 16.3921 30.2117 16.3921V16.3926ZM24.0005 18.0241C20.7005 18.0241 18.0249 20.6998 18.0249 23.9999C18.0249 27.3 20.7005 29.9744 24.0005 29.9744C27.3005 29.9744 29.9751 27.3 29.9751 23.9999C29.9751 20.6998 27.3003 18.0241 24.0003 18.0241H24.0005ZM24.0005 20.1211C26.1425 20.1211 27.8792 21.8576 27.8792 23.9999C27.8792 26.1419 26.1425 27.8787 24.0005 27.8787C21.8583 27.8787 20.1218 26.1419 20.1218 23.9999C20.1218 21.8576 21.8583 20.1211 24.0005 20.1211Z" fill="#0E0E0E"/>
<rect x="0.5" y="0.5" width="47" height="47" rx="23.5" stroke="#CCCCCC"/>
</svg>
