<svg width="48" height="48" viewBox="0 0 48 48" fill="none" xmlns="http://www.w3.org/2000/svg">
<path fill-rule="evenodd" clip-rule="evenodd" d="M14.2756 12.6665C13.3871 12.6665 12.6667 13.3868 12.6667 14.2754V33.7242C12.6667 34.6128 13.3871 35.3331 14.2756 35.3331H33.7245C34.6131 35.3331 35.3334 34.6128 35.3334 33.7242V14.2754C35.3334 13.3868 34.6131 12.6665 33.7245 12.6665H14.2756ZM17.7544 19.7056C18.8403 19.7056 19.7207 18.8253 19.7207 17.7393C19.7207 16.6533 18.8403 15.773 17.7544 15.773C16.6684 15.773 15.788 16.6533 15.788 17.7393C15.788 18.8253 16.6684 19.7056 17.7544 19.7056ZM21.5215 21.1588H24.7804V22.6517C24.7804 22.6517 25.6647 20.883 28.0708 20.883C30.2172 20.883 31.9953 21.9404 31.9953 25.1633V31.9595H28.6182V25.9868C28.6182 24.0856 27.6032 23.8765 26.8297 23.8765C25.2245 23.8765 24.9497 25.2611 24.9497 26.2348V31.9595H21.5215V21.1588ZM19.4685 21.1588H16.0403V31.9595H19.4685V21.1588Z" fill="#0E0E0E"/>
<rect x="0.5" y="0.5" width="47" height="47" rx="23.5" stroke="#CCCCCC"/>
</svg>
