<svg width="25" height="24" viewBox="0 0 25 24" fill="none" xmlns="http://www.w3.org/2000/svg">
<path fill-rule="evenodd" clip-rule="evenodd" d="M6.50745 3.40689C8.18752 1.72682 11.0227 1.85454 12.1925 3.95066L12.8415 5.11359C13.6054 6.48241 13.2799 8.20949 12.1616 9.34146C12.1467 9.36187 12.0677 9.4768 12.0579 9.67762C12.0454 9.93394 12.1364 10.5267 13.0548 11.4451C13.9729 12.3633 14.5656 12.4545 14.8221 12.4421C15.0231 12.4323 15.1381 12.3533 15.1585 12.3384C16.2905 11.2201 18.0176 10.8946 19.3864 11.6585L20.5493 12.3075C22.6454 13.4773 22.7731 16.3124 21.0931 17.9925C20.1944 18.8912 18.9995 19.6897 17.5953 19.7429C15.5144 19.8218 12.0591 19.2844 8.63735 15.8626C5.21556 12.4408 4.67818 8.98559 4.75706 6.90466C4.8103 5.50047 5.60879 4.30555 6.50745 3.40689ZM10.8827 4.68166C10.2836 3.60831 8.67394 3.36172 7.56811 4.46755C6.79276 5.2429 6.2887 6.09871 6.25599 6.96149C6.1902 8.69683 6.61864 11.7226 9.69801 14.802C12.7774 17.8813 15.8031 18.3098 17.5385 18.244C18.4013 18.2113 19.2571 17.7072 20.0324 16.9319C21.1382 15.826 20.8916 14.2163 19.8183 13.6173L18.6554 12.9683C17.932 12.5646 16.9158 12.7023 16.2025 13.4156L16.2023 13.4158C16.1322 13.4858 15.6864 13.9018 14.895 13.9403C14.0847 13.9797 13.104 13.6156 11.9942 12.5058C10.884 11.3956 10.52 10.4146 10.5597 9.60426C10.5985 8.81274 11.0147 8.36714 11.0843 8.29749L11.0844 8.29746C11.7977 7.58414 11.9354 6.568 11.5317 5.84459L10.8827 4.68166Z" fill="#0E0E0E"/>
</svg>
